<svg xmlns:dc="http://purl.org/dc/elements/1.1/" xmlns:cc="http://creativecommons.org/ns#" xmlns:rdf="http://www.w3.org/1999/02/22-rdf-syntax-ns#" xmlns:svg="http://www.w3.org/2000/svg" xmlns="http://www.w3.org/2000/svg" xmlns:sodipodi="http://sodipodi.sourceforge.net/DTD/sodipodi-0.dtd" xmlns:inkscape="http://www.inkscape.org/namespaces/inkscape" width="640" height="640" viewBox="0 0 169.33333 169.33334" version="1.1" id="svg8" inkscape:version="0.92.1 r15371" sodipodi:docname="instagram-logo.svg">
  <defs id="defs2"/>
  <sodipodi:namedview id="base" pagecolor="#ffffff" bordercolor="#666666" borderopacity="1.0" inkscape:pageopacity="0.0" inkscape:pageshadow="2" inkscape:zoom="0.53557814" inkscape:cx="93.975376" inkscape:cy="387.91886" inkscape:document-units="mm" inkscape:current-layer="layer1" showgrid="false" units="px" inkscape:window-width="1366" inkscape:window-height="715" inkscape:window-x="-8" inkscape:window-y="-8" inkscape:window-maximized="1"/>
  <metadata id="metadata5">
    <rdf:RDF>
      <cc:Work rdf:about="">
        <dc:format>image/svg+xml</dc:format>
        <dc:type rdf:resource="http://purl.org/dc/dcmitype/StillImage"/>
        <dc:title/>
      </cc:Work>
    </rdf:RDF>
  </metadata>
  <g inkscape:label="Layer 1" inkscape:groupmode="layer" id="layer1" transform="translate(0,-127.66665)">
    <path id="path4485" d="m 84.666646,169.25114 c 14.032387,0 15.696644,0.0497 21.241284,0.30623 14.24261,0.64888 20.89529,7.40594 21.54348,21.54328 0.25409,5.54026 0.30226,7.20449 0.30226,21.23688 0,14.0367 -0.053,15.69646 -0.30226,21.23673 -0.65252,14.12425 -7.28773,20.89522 -21.54348,21.54343 -5.54464,0.25326 -7.200143,0.30623 -21.241284,0.30623 -14.032393,0 -15.696666,-0.0497 -21.236921,-0.30623 -14.277657,-0.65218 -20.895297,-7.44103 -21.543479,-21.54775 -0.254088,-5.54025 -0.306562,-7.20017 -0.306562,-21.23687 0,-14.03223 0.05628,-15.69216 0.306562,-21.23672 0.652519,-14.13304 7.287722,-20.89523 21.543479,-21.54345 5.544642,-0.24994 7.204528,-0.30291 21.236921,-0.30291 z m 0,-9.47306 c -14.273275,0 -16.06017,0.0663 -21.666124,0.31451 -19.086501,0.87564 -29.69401,11.46586 -30.569945,30.56974 -0.258393,5.61028 -0.319639,7.39716 -0.319639,21.6704 0,14.27324 0.06125,16.06444 0.315335,21.67041 0.875985,19.08632 11.465915,29.69376 30.569929,30.56974 5.61034,0.25491 7.397237,0.31616 21.670506,0.31616 14.273266,0 16.064532,-0.0663 21.670492,-0.31616 19.06899,-0.87565 29.70277,-11.46587 30.56555,-30.56974 0.2584,-5.60597 0.31964,-7.39717 0.31964,-21.67041 0,-14.27324 -0.0613,-16.06012 -0.31533,-21.66593 -0.85844,-19.06895 -11.46154,-29.69393 -30.56556,-30.56974 -5.61034,-0.25822 -7.40161,-0.31947 -21.674872,-0.31947 z m 0,25.56829 c -14.903942,0 -26.9874,12.08329 -26.9874,26.98719 0,14.90391 12.083458,26.99167 26.9874,26.99167 14.903937,0 26.987374,-12.08346 26.987374,-26.99167 0,-14.9039 -12.083437,-26.98719 -26.987374,-26.98719 z m 0,44.50563 c -9.674651,0 -17.518605,-7.83946 -17.518605,-17.51844 0,-9.67451 7.843954,-17.51843 17.518605,-17.51843 9.674624,0 17.518584,7.84392 17.518584,17.51843 0,9.67898 -7.84396,17.51844 -17.518584,17.51844 z m 28.056004,-51.87664 c -3.48619,0 -6.31107,2.82492 -6.31107,6.30666 0,3.48189 2.82488,6.30665 6.31107,6.30665 3.48183,0 6.30233,-2.82476 6.30233,-6.30665 0,-3.48174 -2.8205,-6.30666 -6.30233,-6.30666 z" inkscape:connector-curvature="0" style="stroke-width:0.26458332"/>
  </g>
</svg>