<svg xmlns="http://www.w3.org/2000/svg" width="640" height="640" class="instagram-icon" viewBox="0 0 169.333 169.333">
  <path fill="none" stroke="#000" stroke-width="7.938" d="M84.662 41.577c14.03 0 15.7.05 21.24.3 14.25.66 20.9 7.42 21.55 21.55.26 5.54.3 7.2.3 21.24s-.05 15.7-.3 21.24c-.65 14.13-7.3 20.9-21.54 21.55-5.54.25-7.2.3-21.23.3-14.04 0-15.7-.04-21.24-.3-14.28-.65-20.9-7.44-21.54-21.55-.27-5.54-.32-7.2-.32-21.23 0-14.04.06-15.7.3-21.24.66-14.13 7.3-20.9 21.55-21.54 5.54-.26 7.2-.32 21.24-.32z"/>
  <circle cx="84.667" cy="84.667" r="20.162" fill="none" stroke="#000" stroke-width="7.937" />
  <circle cx="108.742" cy="59.173" r="6.531" />
</svg>
