<svg class="instagram-icon" xmlns="http://www.w3.org/2000/svg" width="640" height="640" viewBox="0 0 169.33333 169.33334">
  <path d="M84.67 41.58c14.03 0 15.7.05 21.24.3 14.25.66 20.9 7.42 21.55 21.55.26 5.54.3 7.2.3 21.24s-.05 15.7-.3 21.24c-.65 14.13-7.3 20.9-21.54 21.55-5.54.25-7.2.3-21.23.3-14.04 0-15.7-.04-21.24-.3-14.28-.65-20.9-7.44-21.54-21.55-.27-5.54-.32-7.2-.32-21.23 0-14.04.06-15.7.3-21.24.66-14.13 7.3-20.9 21.55-21.54 5.54-.26 7.2-.32 21.24-.32zm0-9.47c-14.28 0-16.06.08-21.67.33C43.9 33.3 33.3 43.9 32.43 63c-.26 5.6-.32 7.4-.32 21.67 0 14.27.07 16.06.33 21.67.87 19.08 11.46 29.7 30.57 30.57 5.6.26 7.4.32 21.67.32 14.27 0 16.06-.06 21.67-.3 19.07-.9 29.7-11.48 30.56-30.58.26-5.6.32-7.4.32-21.67 0-14.28-.06-16.06-.3-21.67-.87-19.07-11.47-29.7-30.58-30.57-5.6-.26-7.4-.32-21.67-.32zm0 25.58c-14.9 0-27 12.08-27 27 0 14.9 12.1 26.98 27 26.98s26.98-12.08 26.98-27c0-14.9-12.08-26.98-26.98-26.98zm0 44.5c-9.68 0-17.52-7.83-17.52-17.5 0-9.7 7.84-17.53 17.52-17.53 9.67 0 17.52 7.84 17.52 17.52s-7.86 17.52-17.53 17.52zm28.05-51.87c-3.48 0-6.3 2.83-6.3 6.32 0 3.48 2.82 6.3 6.3 6.3s6.3-2.82 6.3-6.3c0-3.5-2.82-6.3-6.3-6.3z"/>
</svg>